# xmcd
#
# Track frame offsets:
#	150
#	13485
#	27422
#	42777
#	52480
#	60820
#	70210
#	91500
#	100925
#	119205
#	128212
#	140455
#	159007
#	167360
#	179137
#	193487
#	202125
#	213560
#	226585
#	240242
#	250360
#	262330
#	281640
#	292185
#
# Disc length: 4037 seconds
#
# Revision: 0
# Processed by: cddbd v1.4PL0 Copyright (c) Steve Scherf et al.
# Submitted via: audiograbber 1.81.03
#
DISCID=740fc318
DTITLE=Various Artist - Hillbilly Jamboree
DYEAR=1998
DGENRE=Country
TTITLE0=J E Mainer's Mountaineers - Mississippi Sawyers
TTITLE1=J E Mainer's Mountaineers - Ramshackle Shack
TTITLE2=Uncle John Patterson - Milk Cow Blues
TTITLE3=The Armstrong Twins - Eight Thirty Blues
TTITLE4=The Hodges Brothers - The Leaves Are Falling
TTITLE5=Homer "Pappy" Sherrill - Miller's Reel
TTITLE6=Sam McGee - Railroad Blues
TTITLE7=Uncle John Patterson - Plains, Georgia Rock
TTITLE8=Bill Neely - Sun Setting Time In Your Life
TTITLE9=Homer "Pappy" Sherrill - Boggy Road to Texas
TTITLE10=Del McCoury - Roll In My Sweet Baby's Arms
TTITLE11=Any Old Time String Band - Dear Companion
TTITLE12=Sam McGee - Wheels
TTITLE13=Rose Maddox - Philadelphia Lawyer
TTITLE14=The Armstrong Twins - Greenback Dollar
TTITLE15=Uncle John Patterson - Hen Cackle
TTITLE16=The Hodges Brothers - Gathering Flowers on the Hillside
TTITLE17=J E Mainer's Mountaineers - Run Mountain
TTITLE18=Sam McGee - Ching Chong
TTITLE19=Any Old Time String Band - Hello Stranger
TTITLE20=Rose Maddox - Sally Let Your Bangs Hang Down
TTITLE21=Del McCoury - Dreams
TTITLE22=Rose Maddox - Turn Your Radio On
TTITLE23=The Carter Family - Intro and Theme/I Wonder How The Old Folks Are At Ho
TTITLE23=me
EXTD=
EXTT0=
EXTT1=
EXTT2=
EXTT3=
EXTT4=
EXTT5=
EXTT6=
EXTT7=
EXTT8=
EXTT9=
EXTT10=
EXTT11=
EXTT12=
EXTT13=
EXTT14=
EXTT15=
EXTT16=
EXTT17=
EXTT18=
EXTT19=
EXTT20=
EXTT21=
EXTT22=
EXTT23=
PLAYORDER=
